# xmcd
#
# Track frame offsets:
#	150
#	12718
#	27253
#	42793
#	57235
#	72363
#	88233
#	106385
#	119590
#	133188
#	147298
#	164903
#
# Disc length: 2447 seconds
#
# Revision: 4
# Processed by: cddbd v1.5.2PL0 Copyright (c) Steve Scherf et al.
# Submitted via: EZCDAudioConverter 7.1.2.1
#
DISCID=b8098d0c
DTITLE=Asleep At The Wheel - Keepin' Me Up Nights
DYEAR=1990
DGENRE=Country
TTITLE0=Keepin' Me Up Nights
TTITLE1=Boot Scootin' Boogie
TTITLE2=Dance With Who Brung You
TTITLE3=Quittin' Time
TTITLE4=Eyes
TTITLE5=Goin' Home
TTITLE6=That's The Way Love Is
TTITLE7=Gone But Not Forgotten
TTITLE8=You Don't Have To Go To Memphis
TTITLE9=Beat Me Daddy (Eight To The Bar)
TTITLE10=Texas Fiddle Man
TTITLE11=Pedernales Stroll
EXTD=
EXTT0=
EXTT1=
EXTT2=
EXTT3=
EXTT4=
EXTT5=
EXTT6=
EXTT7=
EXTT8=
EXTT9=
EXTT10=
EXTT11=
PLAYORDER=
